<svg xmlns="http://www.w3.org/2000/svg" xmlns:xlink="http://www.w3.org/1999/xlink" preserveAspectRatio="xMidYMid meet" version="1.0" viewBox="-3.9 -3.9 507.8 507.8" zoomAndPan="magnify" style="fill: rgb(0, 0, 0);" original_string_length="1445"><g id="__id198_soaya1vx1"><path d="M259.6,65.5L288,6.1c4.8-10,19.7-7,20.3,4l3.4,65.8c0.5,9,11.1,13.4,17.8,7.4l48.9-44.1 c8.2-7.4,20.9,1.1,17.2,11.5l-22,62.1c-3,8.5,5.2,16.6,13.6,13.6l62.1-22c10.4-3.7,18.9,9,11.5,17.2l-44.1,48.9 c-6,6.7-1.6,17.3,7.4,17.8l65.8,3.4c11.1,0.6,14,15.5,4,20.3l-59.5,28.3c-8.1,3.9-8.1,15.4,0,19.3l59.5,28.3c10,4.8,7,19.7-4,20.3 l-65.8,3.4c-9,0.5-13.4,11.1-7.4,17.8l44.1,48.9c7.4,8.2-1.1,20.9-11.5,17.2l-62.1-22c-8.5-3-16.6,5.2-13.6,13.6l22,62.1 c3.7,10.4-9,18.9-17.2,11.5l-48.9-44.1c-6.7-6-17.3-1.6-17.8,7.4l-3.4,65.8c-0.6,11.1-15.5,14-20.3,4l-28.3-59.5 c-3.9-8.1-15.4-8.1-19.3,0L212,493.9c-4.8,10-19.7,7-20.3-4l-3.4-65.8c-0.5-9-11.1-13.4-17.8-7.4l-48.9,44.1 c-8.2,7.4-20.9-1.1-17.2-11.5l22-62.1c3-8.5-5.2-16.6-13.6-13.6l-62.1,22c-10.4,3.7-18.9-9-11.5-17.2l44.1-48.9 c6-6.7,1.6-17.3-7.4-17.8l-65.8-3.4c-11.1-0.6-14-15.5-4-20.3l59.5-28.3c8.1-3.9,8.1-15.4,0-19.3L6.1,212c-10-4.8-7-19.7,4-20.3 l65.8-3.4c9-0.5,13.4-11.1,7.4-17.8l-44.1-48.9c-7.4-8.2,1.1-20.9,11.5-17.2l62.1,22c8.5,3,16.6-5.2,13.6-13.6l-22-62.1 c-3.7-10.4,9-18.9,17.2-11.5l48.9,44.1c6.7,6,17.3,1.6,17.8-7.4l3.4-65.8c0.6-11.1,15.5-14,20.3-4l28.3,59.5 C244.2,73.7,255.8,73.7,259.6,65.5z" style="fill: rgb(255, 172, 236);"/></g></svg>