<svg xmlns="http://www.w3.org/2000/svg" xmlns:xlink="http://www.w3.org/1999/xlink" preserveAspectRatio="xMidYMid meet" version="1.0" viewBox="-2.4 -2.6 501.8 504.9" zoomAndPan="magnify" style="fill: rgb(0, 0, 0);" original_string_length="666"><g id="__id200_soaya1vx1"><path d="M1.1,42.9c-3.5-5.2,1.9-11.8,7.7-9.3c39.4,16.6,129.4,48.4,218,36.8c77-10,123.5-45.2,146.4-68.5 c4.5-4.5,12.1-0.4,10.6,5.8c-11.4,49-29.1,153.7,7.1,224.3c34.4,67.1,80.4,125.2,104.4,153.5c4.1,4.8-0.6,11.9-6.7,10.1 c-39.1-12-123.9-29-220.9,8.3c-94.1,36.2-149.9,74.9-174.6,94.6c-4.7,3.8-11.5-0.6-10-6.5c13.6-53.4,47-202.1,17.9-272.9 C74.3,154.1,24.6,77.5,1.1,42.9z" style="fill: rgb(150, 201, 255);"/></g></svg>