<?xml version="1.0" encoding="UTF-8"?>
<!DOCTYPE svg PUBLIC "-//W3C//DTD SVG 1.1//EN" "http://www.w3.org/Graphics/SVG/1.1/DTD/svg11.dtd">
<svg xmlns="http://www.w3.org/2000/svg" version="1.1" width="256px" height="256px" style="shape-rendering:geometricPrecision; text-rendering:geometricPrecision; image-rendering:optimizeQuality; fill-rule:evenodd; clip-rule:evenodd" xmlns:xlink="http://www.w3.org/1999/xlink">
<g><path style="opacity:0.991" fill="#8358c8" d="M 84.5,136.5 C 79.2343,154.385 79.401,172.385 85,190.5C 87.5379,196.895 90.0379,203.228 92.5,209.5C 65.3062,194.483 49.4729,171.483 45,140.5C 40.7633,95.4613 58.5967,62.6279 98.5,42C 121.179,33.3343 143.845,33.3343 166.5,42C 172.251,44.2886 177.418,47.4553 182,51.5C 188,60.1667 188,68.8333 182,77.5C 176.1,83.6878 168.933,85.8544 160.5,84C 134.152,69.8028 111.652,74.3028 93,97.5C 85.5964,109.453 82.7631,122.453 84.5,136.5 Z"/></g>
<g><path style="opacity:0.984" fill="#e44fc8" d="M 210.5,168.5 C 208.44,163.271 204.774,159.437 199.5,157C 190.089,156.195 180.756,156.362 171.5,157.5C 162.494,157.666 153.494,157.5 144.5,157C 136.288,155.786 130.788,151.286 128,143.5C 125.315,131.032 129.815,122.532 141.5,118C 155.556,117.072 169.556,117.405 183.5,119C 197.606,124.106 206.44,133.939 210,148.5C 210.5,155.158 210.666,161.825 210.5,168.5 Z"/></g>
<g><path style="opacity:0.981" fill="#e581e5" d="M 84.5,136.5 C 90.458,162.128 106.458,176.462 132.5,179.5C 149.272,178.62 162.272,171.287 171.5,157.5C 180.756,156.362 190.089,156.195 199.5,157C 204.774,159.437 208.44,163.271 210.5,168.5C 209.36,174.449 206.86,179.782 203,184.5C 175.8,216.785 141.967,226.619 101.5,214C 98.1766,212.96 95.1766,211.46 92.5,209.5C 90.0379,203.228 87.5379,196.895 85,190.5C 79.401,172.385 79.2343,154.385 84.5,136.5 Z"/></g>
</svg>
